<?xml version="1.0" standalone="no"?>
<!DOCTYPE svg PUBLIC "-//W3C//DTD SVG 20010904//EN"
 "http://www.w3.org/TR/2001/REC-SVG-20010904/DTD/svg10.dtd">
<svg version="1.0" xmlns="http://www.w3.org/2000/svg"
 width="960.000000pt" height="592.000000pt" viewBox="0 0 960.000000 592.000000"
 preserveAspectRatio="xMidYMid meet">

<g transform="translate(0.000000,592.000000) scale(0.100000,-0.100000)"
fill="#000000" stroke="none">
<path d="M4546 5020 c-439 -55 -801 -331 -971 -740 -71 -168 -101 -414 -76
-603 59 -437 363 -812 781 -962 697 -249 1451 194 1574 924 107 634 -309 1233
-946 1365 -94 19 -272 27 -362 16z m113 -844 c7 -8 11 -27 9 -43 -3 -26 -7
-28 -43 -28 -22 0 -57 4 -77 8 l-38 8 0 -302 c0 -267 -2 -305 -17 -321 -14
-16 -33 -18 -162 -18 -114 1 -150 4 -166 16 -19 14 -20 28 -23 320 -3 276 -5
305 -19 300 -9 -4 -43 -9 -75 -13 l-58 -6 0 40 c0 22 3 43 7 46 3 4 151 7 328
7 269 0 325 -2 334 -14z m709 -28 c3 -36 2 -38 -25 -38 -15 1 -57 7 -93 15
-36 8 -68 14 -72 15 -5 0 -8 -29 -8 -65 l0 -65 95 0 95 0 0 -35 0 -35 -95 0
-95 0 0 -192 c0 -164 -3 -198 -18 -228 l-17 -35 -144 -3 c-116 -2 -148 0 -167
13 l-24 15 0 318 c0 307 1 319 21 340 20 22 23 22 282 20 l262 -3 3 -37z"/>
<path d="M4430 3830 c0 -291 1 -311 18 -308 16 3 17 26 17 308 0 282 -1 305
-17 308 -17 3 -18 -17 -18 -308z"/>
<path d="M5086 4153 c-3 -3 -6 -147 -6 -320 0 -300 1 -313 19 -313 10 0 22 7
25 16 3 9 6 148 6 309 0 277 -1 295 -19 304 -10 6 -21 7 -25 4z"/>
<path d="M1140 1905 l0 -55 120 0 120 0 0 -315 0 -315 75 0 75 0 0 315 0 315
120 0 120 0 0 55 0 55 -315 0 -315 0 0 -55z"/>
<path d="M1882 1688 c3 -253 5 -276 24 -319 62 -134 233 -193 406 -139 86 27
138 78 167 166 19 59 21 87 21 314 l0 250 -70 0 -70 0 0 -252 c0 -227 -2 -257
-19 -295 -22 -48 -55 -73 -112 -83 -93 -17 -178 25 -199 99 -5 20 -10 147 -10
284 l0 247 -71 0 -70 0 3 -272z"/>
<path d="M2680 1589 l0 -371 218 4 c199 3 220 5 257 25 48 26 90 68 104 106
15 39 14 111 -3 150 -14 34 -78 97 -99 97 -6 0 5 14 26 31 48 40 67 77 67 134
0 61 -20 105 -65 142 -54 45 -102 53 -314 53 l-191 0 0 -371z m397 241 c37
-22 53 -76 35 -115 -22 -47 -57 -60 -179 -64 l-113 -3 0 101 0 101 113 0 c93
0 117 -3 144 -20z m1 -301 c64 -22 79 -120 26 -170 -24 -22 -34 -24 -155 -28
l-129 -3 0 106 0 106 114 0 c62 0 127 -5 144 -11z"/>
<path d="M3420 1590 l0 -370 250 0 250 0 0 55 0 55 -180 0 -180 0 0 105 0 105
170 0 170 0 0 55 0 55 -170 0 -170 0 0 100 0 100 180 0 180 0 0 55 0 55 -250
0 -250 0 0 -370z"/>
<path d="M4380 1590 l0 -370 70 0 70 0 0 160 0 160 165 0 166 0 -3 58 -3 57
-162 3 -163 2 0 95 0 95 175 0 175 0 0 55 0 55 -245 0 -245 0 0 -370z"/>
<path d="M5000 1590 l0 -370 70 0 70 0 0 370 0 370 -70 0 -70 0 0 -370z"/>
<path d="M5330 1590 l0 -370 65 0 65 0 2 250 3 250 190 -248 190 -247 53 -3
52 -3 0 370 0 371 -65 0 -65 0 0 -251 0 -251 -191 248 -191 249 -54 3 -54 3 0
-371z"/>
<path d="M6140 1591 l0 -371 168 0 c184 0 254 12 325 53 121 71 181 219 157
390 -18 125 -78 208 -190 261 -65 31 -65 31 -262 34 l-198 4 0 -371z m392 231
c83 -36 118 -107 118 -237 0 -71 -4 -90 -28 -136 -22 -43 -38 -59 -81 -81 -48
-25 -63 -28 -157 -28 l-104 0 0 256 0 257 103 -5 c73 -4 117 -12 149 -26z"/>
<path d="M6960 1590 l0 -370 250 0 250 0 0 55 0 55 -185 0 -185 0 0 105 0 105
170 0 170 0 0 55 0 55 -170 0 -170 0 0 100 0 100 183 2 182 3 3 53 3 52 -250
0 -251 0 0 -370z"/>
<path d="M7600 1591 l0 -371 70 0 70 0 0 156 0 157 88 -5 c49 -3 97 -10 108
-16 22 -12 34 -37 92 -187 l38 -100 76 -3 76 -3 -47 123 c-57 149 -64 161 -97
187 -15 12 -25 23 -23 24 2 2 22 15 45 29 57 36 79 86 79 174 0 62 -4 76 -29
112 -17 25 -47 50 -75 64 -43 21 -61 23 -258 26 l-213 3 0 -370z m416 227 c39
-39 40 -107 1 -145 -27 -27 -31 -28 -152 -31 l-125 -4 0 107 0 107 125 -4
c120 -3 126 -4 151 -30z"/>
</g>
</svg>
